<?xml version="1.0" encoding="UTF-8" standalone="no"?>
<svg
   xmlns:dc="http://purl.org/dc/elements/1.1/"
   xmlns:cc="http://creativecommons.org/ns#"
   xmlns:rdf="http://www.w3.org/1999/02/22-rdf-syntax-ns#"
   xmlns:svg="http://www.w3.org/2000/svg"
   xmlns="http://www.w3.org/2000/svg"
   xmlns:sodipodi="http://sodipodi.sourceforge.net/DTD/sodipodi-0.dtd"
   xmlns:inkscape="http://www.inkscape.org/namespaces/inkscape"
   viewBox="0 0 2500.01 2500"
   version="1.1"
   id="svg4264"
   sodipodi:docname="binance.svg"
   inkscape:version="1.0.2 (394de47547, 2021-03-26)">
  <metadata
     id="metadata4268">
    <rdf:RDF>
      <cc:Work
         rdf:about="">
        <dc:format>image/svg+xml</dc:format>
        <dc:type
           rdf:resource="http://purl.org/dc/dcmitype/StillImage" />
      </cc:Work>
    </rdf:RDF>
  </metadata>
  <sodipodi:namedview
     pagecolor="#ffffff"
     bordercolor="#666666"
     borderopacity="1"
     objecttolerance="10"
     gridtolerance="10"
     guidetolerance="10"
     inkscape:pageopacity="0"
     inkscape:pageshadow="2"
     inkscape:window-width="1360"
     inkscape:window-height="700"
     id="namedview4266"
     showgrid="false"
     inkscape:zoom="0.20445552"
     inkscape:cx="1250.005"
     inkscape:cy="1250"
     inkscape:window-x="0"
     inkscape:window-y="36"
     inkscape:window-maximized="1"
     inkscape:current-layer="svg4264" />
  <defs
     id="defs4254">
    <style
       id="style4252">.cls-1{fill:#f3ba2f;}</style>
  </defs>
  <title
     id="title4256">bi</title>
  <g
     id="Layer_2"
     data-name="Layer 2"
     style="fill:#f5f5f5;fill-opacity:1">
    <g
       id="Layer_1-2"
       data-name="Layer 1"
       style="fill:#f5f5f5;fill-opacity:1">
      <path
         class="cls-1"
         d="M764.48,1050.52,1250,565l485.75,485.73,282.5-282.5L1250,0,482,768l282.49,282.5M0,1250,282.51,967.45,565,1249.94,282.49,1532.45Zm764.48,199.51L1250,1935l485.74-485.72,282.65,282.35-.14.15L1250,2500,482,1732l-.4-.4,282.91-282.12M1935,1250.12l282.51-282.51L2500,1250.1,2217.5,1532.61Z"
         id="path4258"
         style="fill:#f5f5f5;fill-opacity:1" />
      <path
         class="cls-1"
         d="M1536.52,1249.85h.12L1250,963.19,1038.13,1175h0l-24.34,24.35-50.2,50.21-.4.39.4.41L1250,1536.81l286.66-286.66.14-.16-.26-.14"
         id="path4260"
         style="fill:#f5f5f5;fill-opacity:1" />
    </g>
  </g>
</svg>
