<?xml version="1.0" encoding="UTF-8" standalone="no"?>
<svg
   xmlns:dc="http://purl.org/dc/elements/1.1/"
   xmlns:cc="http://creativecommons.org/ns#"
   xmlns:rdf="http://www.w3.org/1999/02/22-rdf-syntax-ns#"
   xmlns:svg="http://www.w3.org/2000/svg"
   xmlns="http://www.w3.org/2000/svg"
   xmlns:sodipodi="http://sodipodi.sourceforge.net/DTD/sodipodi-0.dtd"
   xmlns:inkscape="http://www.inkscape.org/namespaces/inkscape"
   version="1.1"
   width="511.94473"
   height="512.00562"
   viewBox="0 0 0.99989206 1.000011"
   preserveAspectRatio="xMidYMid"
   id="svg2"
   inkscape:version="1.0.2 (394de47547, 2021-03-26)"
   sodipodi:docname="bitcoin.svg">
  <metadata
     id="metadata22">
    <rdf:RDF>
      <cc:Work
         rdf:about="">
        <dc:format>image/svg+xml</dc:format>
        <dc:type
           rdf:resource="http://purl.org/dc/dcmitype/StillImage" />
        <dc:title />
      </cc:Work>
    </rdf:RDF>
  </metadata>
  <sodipodi:namedview
     pagecolor="#ffffff"
     bordercolor="#666666"
     borderopacity="1"
     objecttolerance="10"
     gridtolerance="10"
     guidetolerance="10"
     inkscape:pageopacity="0"
     inkscape:pageshadow="2"
     inkscape:window-width="1360"
     inkscape:window-height="700"
     id="namedview20"
     showgrid="false"
     inkscape:zoom="0.92507397"
     inkscape:cx="-102.55868"
     inkscape:cy="260.88719"
     inkscape:window-x="0"
     inkscape:window-y="36"
     inkscape:window-maximized="1"
     inkscape:current-layer="g16"
     inkscape:document-rotation="0" />
  <!-- Android launcher icons: viewBox="-0.045 -0.045 1.09 1.09" -->
  <defs
     id="defs4">
    <filter
       id="_drop-shadow"
       color-interpolation-filters="sRGB">
      <feGaussianBlur
         in="SourceAlpha"
         result="blur-out"
         stdDeviation="1"
         id="feGaussianBlur7" />
      <feBlend
         in="SourceGraphic"
         in2="blur-out"
         mode="normal"
         id="feBlend9" />
    </filter>
    <linearGradient
       id="coin-gradient"
       x1="0.0004394635"
       y1="-0.00059563987"
       x2="0.0004394635"
       y2="63.996323"
       gradientTransform="matrix(0.99994167,0,0,1.0000583,10.939941,-3.4544734)"
       gradientUnits="userSpaceOnUse">
      <stop
         offset="0%"
         style="stop-color:#f9aa4b"
         id="stop12" />
      <stop
         offset="100%"
         style="stop-color:#f7931a"
         id="stop14" />
    </linearGradient>
  </defs>
  <g
     transform="matrix(0.015625,0,0,0.015625,-0.17094468,0.05398636)"
     id="g16">
    <path
       id="coin"
       style="fill:#f5f5f5;stroke-width:1;fill-opacity:1"
       d="M 42.673827,-3.4542293 C 28.427414,-3.347064 15.503425,6.3413957 11.898925,20.807489 c -4.2759996,17.142 6.156922,34.50603 23.294922,38.78003 17.145,4.275 34.507983,-6.158026 38.781983,-23.301026 4.274,-17.144 -6.158003,-34.5099352 -23.302003,-38.7839352 -2.678125,-0.6678125 -5.361775,-0.9766325 -8,-0.9567871 z m -1.055907,11.1496582 3.509032,0.875 -1.410156,5.6530761 c 0.942,0.215 1.889989,0.432109 2.812989,0.662109 l 1.400146,-5.6159662 3.510986,0.8750002 -1.437987,5.767822 c 4.433,1.527 7.674841,3.815974 7.037841,8.073974 -0.461,3.117 -2.18891,4.62603 -4.48291,5.15503 3.15,1.64 4.753074,4.155136 3.226074,8.515136 -1.895,5.415 -6.397033,5.872014 -12.384033,4.739014 l -1.453125,5.822999 -3.510986,-0.875 1.434081,-5.745118 c -0.91,-0.226 -1.840095,-0.466075 -2.798095,-0.726075 l -1.438965,5.772218 -3.50708,-0.875 1.453125,-5.834229 c -0.82,-0.21 -1.65293,-0.432996 -2.50293,-0.645996 l -4.569091,-1.138916 1.74292,-4.019043 c 0,0 2.587001,0.687963 2.552001,0.636963 0.994,0.246 1.435132,-0.401984 1.609132,-0.833984 l 2.295898,-9.204834 c 0.129,0.031 0.254094,0.0628 0.371094,0.0918 -0.14,-0.056 -0.266991,-0.09194 -0.364991,-0.116943 l 1.63794,-6.571045 c 0.043,-0.745999 -0.213986,-1.686992 -1.635986,-2.041992 0.055,-0.037 -2.550049,-0.633788 -2.550049,-0.633788 l 0.934081,-3.75 4.842041,1.208983 -0.0041,0.01782 c 0.728,0.181 1.478188,0.3531 2.242188,0.527099 z m 1.152831,10.6750491 -1.747802,7.01001 c 1.982,0.494 8.091787,2.508969 9.081787,-1.457031 1.031,-4.137 -5.351985,-5.058979 -7.333985,-5.552979 z m -2.629882,10.548096 -1.927979,7.729004 c 2.38,0.591 9.720909,2.94789 10.805909,-1.41211 1.134,-4.547 -6.49793,-5.722894 -8.87793,-6.316894 z" />
  </g>
</svg>
