<?xml version="1.0" encoding="UTF-8" standalone="no"?>
<svg
   xmlns:dc="http://purl.org/dc/elements/1.1/"
   xmlns:cc="http://creativecommons.org/ns#"
   xmlns:rdf="http://www.w3.org/1999/02/22-rdf-syntax-ns#"
   xmlns:svg="http://www.w3.org/2000/svg"
   xmlns="http://www.w3.org/2000/svg"
   xmlns:sodipodi="http://sodipodi.sourceforge.net/DTD/sodipodi-0.dtd"
   xmlns:inkscape="http://www.inkscape.org/namespaces/inkscape"
   viewBox="0 0 2000 2000"
   width="2500"
   height="2500"
   version="1.1"
   id="svg1644"
   sodipodi:docname="dogecoin.svg"
   inkscape:version="1.0.2 (394de47547, 2021-03-26)">
  <metadata
     id="metadata1650">
    <rdf:RDF>
      <cc:Work
         rdf:about="">
        <dc:format>image/svg+xml</dc:format>
        <dc:type
           rdf:resource="http://purl.org/dc/dcmitype/StillImage" />
      </cc:Work>
    </rdf:RDF>
  </metadata>
  <defs
     id="defs1648" />
  <sodipodi:namedview
     pagecolor="#ffffff"
     bordercolor="#666666"
     borderopacity="1"
     objecttolerance="10"
     gridtolerance="10"
     guidetolerance="10"
     inkscape:pageopacity="0"
     inkscape:pageshadow="2"
     inkscape:window-width="1360"
     inkscape:window-height="700"
     id="namedview1646"
     showgrid="false"
     inkscape:zoom="0.20445552"
     inkscape:cx="1250"
     inkscape:cy="1250"
     inkscape:window-x="0"
     inkscape:window-y="36"
     inkscape:window-maximized="1"
     inkscape:current-layer="svg1644" />
  <g
     fill="#c2a633"
     id="g1642"
     style="fill:#f5f5f5;fill-opacity:1">
    <path
       d="M1024 659H881.12v281.69h224.79v117.94H881.12v281.67H1031c38.51 0 316.16 4.35 315.73-327.72S1077.44 659 1024 659z"
       id="path1638"
       style="fill:#f5f5f5;fill-opacity:1" />
    <path
       d="M1000 0C447.71 0 0 447.71 0 1000s447.71 1000 1000 1000 1000-447.71 1000-1000S1552.29 0 1000 0zm39.29 1540.1H677.14v-481.46H549.48V940.7h127.65V459.21h310.82c73.53 0 560.56-15.27 560.56 549.48 0 574.09-509.21 531.41-509.21 531.41z"
       id="path1640"
       style="fill:#f5f5f5;fill-opacity:1" />
  </g>
</svg>
