<?xml version="1.0" encoding="UTF-8" standalone="no"?>
<svg
   xmlns:dc="http://purl.org/dc/elements/1.1/"
   xmlns:cc="http://creativecommons.org/ns#"
   xmlns:rdf="http://www.w3.org/1999/02/22-rdf-syntax-ns#"
   xmlns:svg="http://www.w3.org/2000/svg"
   xmlns="http://www.w3.org/2000/svg"
   xmlns:sodipodi="http://sodipodi.sourceforge.net/DTD/sodipodi-0.dtd"
   xmlns:inkscape="http://www.inkscape.org/namespaces/inkscape"
   id="Layer_1"
   data-name="Layer 1"
   viewBox="0 0 180 179.51"
   version="1.1"
   sodipodi:docname="harmony.svg"
   inkscape:version="1.0.2 (394de47547, 2021-03-26)">
  <metadata
     id="metadata2922">
    <rdf:RDF>
      <cc:Work
         rdf:about="">
        <dc:format>image/svg+xml</dc:format>
        <dc:type
           rdf:resource="http://purl.org/dc/dcmitype/StillImage" />
      </cc:Work>
    </rdf:RDF>
  </metadata>
  <sodipodi:namedview
     pagecolor="#ffffff"
     bordercolor="#666666"
     borderopacity="1"
     objecttolerance="10"
     gridtolerance="10"
     guidetolerance="10"
     inkscape:pageopacity="0"
     inkscape:pageshadow="2"
     inkscape:window-width="1360"
     inkscape:window-height="700"
     id="namedview2920"
     showgrid="false"
     inkscape:zoom="2.8474113"
     inkscape:cx="90"
     inkscape:cy="89.754997"
     inkscape:window-x="0"
     inkscape:window-y="36"
     inkscape:window-maximized="1"
     inkscape:current-layer="Layer_1" />
  <defs
     id="defs2914">
    <linearGradient
       id="linear-gradient"
       x1="202.93"
       y1="544.7"
       x2="203.8"
       y2="545.57"
       gradientTransform="matrix(180, 0, 0, -179.51, -36456, 98005.23)"
       gradientUnits="userSpaceOnUse">
      <stop
         offset="0"
         stop-color="#00aee9"
         id="stop2909" />
      <stop
         offset="1"
         stop-color="#69fabd"
         id="stop2911" />
    </linearGradient>
  </defs>
  <title
     id="title2916">harmony-one-logo</title>
  <path
     id="Shape"
     d="M201.17,60a38.81,38.81,0,0,0-38.84,38.71v42.92c-4,.27-8.09.44-12.33,0.44s-8.31.17-12.33,0.41V98.71a38.84,38.84,0,0,0-77.67,0V201.29a38.84,38.84,0,0,0,77.67,0V158.37c4-.27,8.09-0.44,12.33-0.44s8.31-.17,12.33-0.41v43.77a38.84,38.84,0,0,0,77.67,0V98.71A38.81,38.81,0,0,0,201.17,60ZM98.83,75.86a22.91,22.91,0,0,1,22.92,22.85v45.45a130.64,130.64,0,0,0-33,9.33,60,60,0,0,0-12.8,7.64V98.71A22.91,22.91,0,0,1,98.83,75.86Zm22.92,125.43a22.92,22.92,0,1,1-45.84,0V191c0-9.09,7.2-17.7,19.27-23.06a113,113,0,0,1,26.57-7.77v41.12Zm79.42,22.85a22.91,22.91,0,0,1-22.92-22.85V155.84a130.64,130.64,0,0,0,33-9.33,60,60,0,0,0,12.8-7.64v62.42A22.91,22.91,0,0,1,201.17,224.14ZM204.82,132a113,113,0,0,1-26.57,7.77V98.71a22.92,22.92,0,1,1,45.84,0V109C224.09,118.05,216.89,126.66,204.82,132Z"
     transform="translate(-60 -60)"
     style="fill:#f5f5f5;fill-opacity:1" />
</svg>
