<?xml version="1.0" encoding="UTF-8" standalone="no"?>
<svg
   xmlns:dc="http://purl.org/dc/elements/1.1/"
   xmlns:cc="http://creativecommons.org/ns#"
   xmlns:rdf="http://www.w3.org/1999/02/22-rdf-syntax-ns#"
   xmlns:svg="http://www.w3.org/2000/svg"
   xmlns="http://www.w3.org/2000/svg"
   xmlns:sodipodi="http://sodipodi.sourceforge.net/DTD/sodipodi-0.dtd"
   xmlns:inkscape="http://www.inkscape.org/namespaces/inkscape"
   version="1.1"
   id="Layer_1"
   x="0px"
   y="0px"
   viewBox="0 0 38.4 33.5"
   style="enable-background:new 0 0 38.4 33.5;"
   xml:space="preserve"
   sodipodi:docname="matic.svg"
   inkscape:version="1.0.2 (394de47547, 2021-03-26)"><metadata
   id="metadata1024"><rdf:RDF><cc:Work
       rdf:about=""><dc:format>image/svg+xml</dc:format><dc:type
         rdf:resource="http://purl.org/dc/dcmitype/StillImage" /></cc:Work></rdf:RDF></metadata><defs
   id="defs1022" /><sodipodi:namedview
   pagecolor="#ffffff"
   bordercolor="#666666"
   borderopacity="1"
   objecttolerance="10"
   gridtolerance="10"
   guidetolerance="10"
   inkscape:pageopacity="0"
   inkscape:pageshadow="2"
   inkscape:window-width="1360"
   inkscape:window-height="700"
   id="namedview1020"
   showgrid="false"
   inkscape:zoom="15.257874"
   inkscape:cx="19.200001"
   inkscape:cy="16.75"
   inkscape:window-x="0"
   inkscape:window-y="36"
   inkscape:window-maximized="1"
   inkscape:current-layer="Layer_1" />
<style
   type="text/css"
   id="style1013">
	.st0{fill:#8247E5;}
</style>
<g
   id="g1017"
   style="fill:#f5f5f5;fill-opacity:1">
	<path
   class="st0"
   d="M29,10.2c-0.7-0.4-1.6-0.4-2.4,0L21,13.5l-3.8,2.1l-5.5,3.3c-0.7,0.4-1.6,0.4-2.4,0L5,16.3   c-0.7-0.4-1.2-1.2-1.2-2.1v-5c0-0.8,0.4-1.6,1.2-2.1l4.3-2.5c0.7-0.4,1.6-0.4,2.4,0L16,7.2c0.7,0.4,1.2,1.2,1.2,2.1v3.3l3.8-2.2V7   c0-0.8-0.4-1.6-1.2-2.1l-8-4.7c-0.7-0.4-1.6-0.4-2.4,0L1.2,5C0.4,5.4,0,6.2,0,7v9.4c0,0.8,0.4,1.6,1.2,2.1l8.1,4.7   c0.7,0.4,1.6,0.4,2.4,0l5.5-3.2l3.8-2.2l5.5-3.2c0.7-0.4,1.6-0.4,2.4,0l4.3,2.5c0.7,0.4,1.2,1.2,1.2,2.1v5c0,0.8-0.4,1.6-1.2,2.1   L29,28.8c-0.7,0.4-1.6,0.4-2.4,0l-4.3-2.5c-0.7-0.4-1.2-1.2-1.2-2.1V21l-3.8,2.2v3.3c0,0.8,0.4,1.6,1.2,2.1l8.1,4.7   c0.7,0.4,1.6,0.4,2.4,0l8.1-4.7c0.7-0.4,1.2-1.2,1.2-2.1V17c0-0.8-0.4-1.6-1.2-2.1L29,10.2z"
   id="path1015"
   style="fill:#f5f5f5;fill-opacity:1" />
</g>
</svg>
